STARTFONT 2.1
COMMENT  
COMMENT  WARNING:  This bdf file was generated from an X server using
COMMENT  xbdfdump.  The resulting font is subject to the same copyright,
COMMENT  license, and trademark restrictions as the original font.  The
COMMENT  author and distributors of xbdfdump disclaim all liability for
COMMENT  misuse of the program or its output.
COMMENT  
FONT -phaisarn-angsana-medium-i-normal--18-180-75-75-p-75-tis620-0
SIZE 18 75 75
FONTBOUNDINGBOX 42 49 -13 -15
STARTPROPERTIES 26
FOUNDRY "Phaisarn"
FAMILY_NAME "Angsana"
WEIGHT_NAME "medium"
SLANT "i"
SETWIDTH_NAME "normal"
ADD_STYLE_NAME ""
PIXEL_SIZE 18
POINT_SIZE 180
RESOLUTION_X 75
RESOLUTION_Y 75
SPACING "p"
AVERAGE_WIDTH 75
CHARSET_REGISTRY "tis620"
CHARSET_ENCODING "0"
COPYRIGHT "Angsana by Pt-TITech 1997"
RAW_PIXELSIZE 1000
RAW_POINTSIZE "N"
RAW_ASCENT "CIRCUMFLEX_ACCENT"
RAW_DESCENT "RAW_FIGURE_WIDTH"
RAW_AVERAGE_WIDTH 2994
FACE_NAME "Angsana Inclined"
WEIGHT 10
X_HEIGHT 11
QUAD_WIDTH 15
FONT_ASCENT 35
FONT_DESCENT 10
ENDPROPERTIES
CHARS 199
STARTCHAR space
ENCODING 32
SWIDTH 320 0
DWIDTH 6 0
BBX 0 0 0 0
BITMAP
ENDCHAR
STARTCHAR exclam
ENCODING 33
SWIDTH 426 0
DWIDTH 8 0
BBX 6 16 2 0
BITMAP
0c
1c
18
18
18
10
30
20
20
20
20
40
00
00
c0
c0
ENDCHAR
STARTCHAR quotedbl
ENCODING 34
SWIDTH 533 0
DWIDTH 10 0
BBX 8 7 3 9
BITMAP
63
67
66
46
c4
84
84
ENDCHAR
STARTCHAR numbersign
ENCODING 35
SWIDTH 640 0
DWIDTH 12 0
BBX 11 16 2 0
BITMAP
0840
0840
0840
0880
1080
ffe0
1080
1080
1100
2100
ffe0
2100
2100
2200
4200
4200
ENDCHAR
STARTCHAR dollar
ENCODING 36
SWIDTH 640 0
DWIDTH 12 0
BBX 11 19 1 -2
BITMAP
0080
0780
1960
1160
3120
3220
3a00
1e00
0e00
0700
0780
05c0
08c0
48c0
8880
9180
d700
3800
2000
ENDCHAR
STARTCHAR percent
ENCODING 37
SWIDTH 1066 0
DWIDTH 20 0
BBX 18 17 2 -1
BITMAP
0c00c0
320180
630300
630600
c30c00
c61800
c63000
4c6000
30c300
018c80
0318c0
0618c0
0c30c0
183180
303180
601300
c00c00
ENDCHAR
STARTCHAR ampersand
ENCODING 38
SWIDTH 1013 0
DWIDTH 19 0
BBX 16 16 1 0
BITMAP
0060
00d0
0098
0198
0190
01a0
01c0
0380
1d9f
70cc
60c8
c0d0
c050
c060
6060
3f9f
ENDCHAR
STARTCHAR apostrophe
ENCODING 39
SWIDTH 266 0
DWIDTH 5 0
BBX 3 7 3 9
BITMAP
60
60
40
c0
c0
80
80
ENDCHAR
STARTCHAR parenleft
ENCODING 40
SWIDTH 426 0
DWIDTH 8 0
BBX 8 22 2 -5
BITMAP
01
02
04
08
08
10
10
30
60
60
60
e0
e0
c0
c0
c0
c0
40
40
20
20
10
ENDCHAR
STARTCHAR parenright
ENCODING 41
SWIDTH 426 0
DWIDTH 8 0
BBX 9 22 -3 -5
BITMAP
0200
0200
0100
0100
0100
0180
0180
0180
0180
0180
0380
0300
0300
0700
0600
0400
0c00
0800
1000
2000
4000
8000
ENDCHAR
STARTCHAR asterisk
ENCODING 42
SWIDTH 640 0
DWIDTH 12 0
BBX 8 10 4 7
BITMAP
18
18
d3
f7
3c
3c
f7
d3
18
18
ENDCHAR
STARTCHAR plus
ENCODING 43
SWIDTH 853 0
DWIDTH 16 0
BBX 13 12 2 2
BITMAP
0200
0200
0200
0200
0200
0200
fff8
0200
0200
0200
0200
0200
ENDCHAR
STARTCHAR comma
ENCODING 44
SWIDTH 320 0
DWIDTH 6 0
BBX 3 5 0 -3
BITMAP
60
60
20
40
80
ENDCHAR
STARTCHAR minus
ENCODING 45
SWIDTH 426 0
DWIDTH 8 0
BBX 7 1 0 4
BITMAP
fe
ENDCHAR
STARTCHAR period
ENCODING 46
SWIDTH 320 0
DWIDTH 6 0
BBX 2 2 1 0
BITMAP
c0
c0
ENDCHAR
STARTCHAR slash
ENCODING 47
SWIDTH 373 0
DWIDTH 7 0
BBX 10 17 -1 0
BITMAP
0040
0080
0080
0100
0100
0200
0200
0400
0400
0800
1000
1000
2000
2000
4000
4000
8000
ENDCHAR
STARTCHAR 0
ENCODING 48
SWIDTH 640 0
DWIDTH 12 0
BBX 11 16 1 0
BITMAP
0380
0cc0
1840
3060
3060
7060
6060
60e0
e0c0
e0c0
c1c0
c180
c100
4300
6400
1800
ENDCHAR
STARTCHAR 1
ENCODING 49
SWIDTH 640 0
DWIDTH 12 0
BBX 9 16 1 0
BITMAP
0380
0f00
0300
0300
0200
0600
0600
0600
0c00
0c00
0c00
1800
1800
1800
3800
fc00
ENDCHAR
STARTCHAR 2
ENCODING 50
SWIDTH 640 0
DWIDTH 12 0
BBX 11 16 0 0
BITMAP
0380
0fc0
08e0
1060
0060
0060
00c0
0080
0100
0200
0400
0800
1000
2080
7f80
ff00
ENDCHAR
STARTCHAR 3
ENCODING 51
SWIDTH 640 0
DWIDTH 12 0
BBX 10 16 1 0
BITMAP
0780
09c0
08c0
00c0
0180
0100
0e00
1f00
0300
0180
0180
0180
0100
0300
e600
7800
ENDCHAR
STARTCHAR 4
ENCODING 52
SWIDTH 640 0
DWIDTH 12 0
BBX 11 16 1 0
BITMAP
0020
0040
00c0
01c0
02c0
0480
0980
1980
1180
2100
4300
ffc0
0200
0600
0600
0400
ENDCHAR
STARTCHAR 5
ENCODING 53
SWIDTH 640 0
DWIDTH 12 0
BBX 11 16 1 0
BITMAP
07e0
0fc0
0800
0800
1c00
1f00
0700
0380
0180
0180
0180
0100
0100
0200
e400
7800
ENDCHAR
STARTCHAR 6
ENCODING 54
SWIDTH 640 0
DWIDTH 12 0
BBX 10 16 2 0
BITMAP
00c0
0300
0600
0c00
1800
3800
3e00
7300
6180
e180
c180
c180
c300
4300
6600
1800
ENDCHAR
STARTCHAR 7
ENCODING 55
SWIDTH 640 0
DWIDTH 12 0
BBX 10 16 3 0
BITMAP
3fc0
7f80
4080
8100
0300
0200
0400
0400
0800
0800
1000
3000
2000
4000
4000
8000
ENDCHAR
STARTCHAR 8
ENCODING 56
SWIDTH 640 0
DWIDTH 12 0
BBX 11 16 1 0
BITMAP
0780
0cc0
1820
1820
1820
1c40
0d80
0e00
1300
6380
41c0
c1c0
c180
4180
2200
1c00
ENDCHAR
STARTCHAR 9
ENCODING 57
SWIDTH 640 0
DWIDTH 12 0
BBX 11 16 1 0
BITMAP
0700
08c0
1040
3060
6060
6060
60e0
60e0
20c0
31c0
1f80
0300
0600
0c00
3800
c000
ENDCHAR
STARTCHAR colon
ENCODING 58
SWIDTH 426 0
DWIDTH 8 0
BBX 5 11 1 0
BITMAP
18
18
00
00
00
00
00
00
00
c0
c0
ENDCHAR
STARTCHAR semicolon
ENCODING 59
SWIDTH 426 0
DWIDTH 8 0
BBX 6 14 0 -3
BITMAP
0c
0c
00
00
00
00
00
00
20
60
60
20
40
80
ENDCHAR
STARTCHAR less
ENCODING 60
SWIDTH 853 0
DWIDTH 16 0
BBX 13 12 2 2
BITMAP
0008
0070
01c0
0600
1800
e000
6000
1800
0700
01c0
0030
0008
ENDCHAR
STARTCHAR equal
ENCODING 61
SWIDTH 853 0
DWIDTH 16 0
BBX 13 4 2 6
BITMAP
fff8
0000
0000
fff8
ENDCHAR
STARTCHAR greater
ENCODING 62
SWIDTH 853 0
DWIDTH 16 0
BBX 13 12 2 2
BITMAP
8000
6000
1c00
0700
00c0
0030
0038
00c0
0300
1c00
7000
8000
ENDCHAR
STARTCHAR question
ENCODING 63
SWIDTH 640 0
DWIDTH 12 0
BBX 9 16 2 0
BITMAP
1e00
2300
6180
6180
0180
0300
0600
0c00
1000
2000
2000
6000
0000
0000
c000
c000
ENDCHAR
STARTCHAR at
ENCODING 64
SWIDTH 1173 0
DWIDTH 22 0
BBX 21 22 1 -5
BITMAP
007c00
018700
060080
080040
100020
200020
603230
404e10
408610
810610
830c10
830c20
861c20
861820
863840
47d988
430e10
600010
200020
1800c0
070300
00fc00
ENDCHAR
STARTCHAR A
ENCODING 65
SWIDTH 800 0
DWIDTH 15 0
BBX 14 16 -1 0
BITMAP
0004
0008
0018
0038
0038
0058
0098
0118
0138
0230
07f0
0830
0830
1030
3070
f8fc
ENDCHAR
STARTCHAR B
ENCODING 66
SWIDTH 800 0
DWIDTH 15 0
BBX 15 16 -1 0
BITMAP
07f0
018c
0186
0306
0306
030c
061c
07f0
0638
0c18
0c0c
0c0c
1808
1818
3cf0
ffc0
ENDCHAR
STARTCHAR C
ENCODING 67
SWIDTH 853 0
DWIDTH 16 0
BBX 15 16 2 0
BITMAP
01f2
060c
1c04
3804
3004
6000
6000
e000
c000
c000
c000
c000
6008
6010
38e0
0f00
ENDCHAR
STARTCHAR D
ENCODING 68
SWIDTH 906 0
DWIDTH 17 0
BBX 18 16 -1 0
BITMAP
07f800
038700
038180
030180
0300c0
0700c0
0600c0
0600c0
0e00c0
0c01c0
0c0180
0c0180
180300
180600
383800
ffc000
ENDCHAR
STARTCHAR E
ENCODING 69
SWIDTH 800 0
DWIDTH 15 0
BBX 16 16 -1 0
BITMAP
0fff
0306
0302
0302
0600
0610
0630
07e0
0c20
0c20
0c20
1804
1804
1808
3838
fff8
ENDCHAR
STARTCHAR F
ENCODING 70
SWIDTH 800 0
DWIDTH 15 0
BBX 17 16 -1 0
BITMAP
0fff80
030100
030100
030100
060000
060800
061000
07f000
0c3000
0c1000
0c0000
180000
180000
180000
380000
fe0000
ENDCHAR
STARTCHAR G
ENCODING 71
SWIDTH 906 0
DWIDTH 17 0
BBX 15 16 2 0
BITMAP
01f2
071c
1804
3004
7004
6000
4000
c0fe
c038
c038
c030
c030
6030
6060
3060
0f80
ENDCHAR
STARTCHAR H
ENCODING 72
SWIDTH 906 0
DWIDTH 17 0
BBX 20 16 -1 0
BITMAP
0fc7f0
0381c0
030180
030180
060180
060300
060300
0fff00
0c0600
0c0600
0c0600
180e00
180c00
180c00
381c00
fc7f00
ENDCHAR
STARTCHAR I
ENCODING 73
SWIDTH 426 0
DWIDTH 8 0
BBX 11 16 -1 0
BITMAP
07e0
0380
0300
0300
0300
0600
0600
0600
0e00
0c00
0c00
0c00
1800
1800
3800
fe00
ENDCHAR
STARTCHAR J
ENCODING 74
SWIDTH 586 0
DWIDTH 11 0
BBX 14 16 -1 0
BITMAP
00fc
0070
0070
0060
0060
0060
00c0
00c0
00c0
0180
0180
0180
6300
e300
c600
3800
ENDCHAR
STARTCHAR K
ENCODING 75
SWIDTH 853 0
DWIDTH 16 0
BBX 18 16 -1 0
BITMAP
0fc7c0
038300
030400
030800
063000
064000
068000
0f8000
0d8000
0cc000
0ce000
186000
183000
183800
383c00
fc7f00
ENDCHAR
STARTCHAR L
ENCODING 76
SWIDTH 693 0
DWIDTH 13 0
BBX 14 16 -1 0
BITMAP
07e0
0380
0380
0300
0300
0700
0600
0600
0600
0c00
0c00
0c04
1804
1808
3818
fff0
ENDCHAR
STARTCHAR M
ENCODING 77
SWIDTH 1066 0
DWIDTH 20 0
BBX 23 16 -1 0
BITMAP
0f801e
038038
038070
0380f0
0380b0
058160
058360
058260
0984c0
08c8c0
08d8c0
10d180
10e180
10e180
30c380
f88fe0
ENDCHAR
STARTCHAR N
ENCODING 78
SWIDTH 853 0
DWIDTH 16 0
BBX 19 16 -1 0
BITMAP
0f03e0
070180
038100
038100
058100
04c200
04c200
04e200
086200
086400
083400
103400
103800
101800
301800
f80800
ENDCHAR
STARTCHAR O
ENCODING 79
SWIDTH 906 0
DWIDTH 17 0
BBX 16 16 1 0
BITMAP
00f0
030c
0c06
1803
3003
7003
6003
6003
c006
c006
c00e
c00c
c018
6030
30c0
1f00
ENDCHAR
STARTCHAR P
ENCODING 80
SWIDTH 800 0
DWIDTH 15 0
BBX 16 16 -1 0
BITMAP
07fc
0386
0383
0303
0303
0707
0606
060c
07f0
0c00
0c00
0c00
1800
1800
3800
fe00
ENDCHAR
STARTCHAR Q
ENCODING 81
SWIDTH 906 0
DWIDTH 17 0
BBX 16 21 1 -5
BITMAP
00f0
030c
0c06
1803
3003
7003
6003
6003
e007
c006
c00e
c00c
c01c
6038
6070
3bc0
0c00
1002
2006
fff8
0fe0
ENDCHAR
STARTCHAR R
ENCODING 82
SWIDTH 800 0
DWIDTH 15 0
BBX 15 16 -1 0
BITMAP
07f8
039c
0384
0306
0306
0306
060c
0618
07e0
0c60
0c70
0c30
1830
1838
3818
fe1e
ENDCHAR
STARTCHAR S
ENCODING 83
SWIDTH 640 0
DWIDTH 12 0
BBX 13 16 0 0
BITMAP
03c8
0c38
1810
1810
1c08
1e00
0f00
0780
01c0
00e0
4060
4060
4060
40c0
f1c0
9f00
ENDCHAR
STARTCHAR T
ENCODING 84
SWIDTH 693 0
DWIDTH 13 0
BBX 14 16 2 0
BITMAP
3ffc
2308
4308
4308
0300
0600
0600
0600
0c00
0c00
0c00
1800
1800
1800
3800
fe00
ENDCHAR
STARTCHAR U
ENCODING 85
SWIDTH 906 0
DWIDTH 17 0
BBX 16 16 3 0
BITMAP
fe1f
3804
3004
3008
3008
2008
6008
6010
6010
c010
c020
c020
c020
e040
7180
1e00
ENDCHAR
STARTCHAR V
ENCODING 86
SWIDTH 800 0
DWIDTH 15 0
BBX 15 16 3 0
BITMAP
fe3e
3818
3010
3020
3040
3040
3080
3100
3200
3400
7400
6800
7000
6000
4000
4000
ENDCHAR
STARTCHAR W
ENCODING 87
SWIDTH 1066 0
DWIDTH 20 0
BBX 20 16 3 0
BITMAP
fdf9f0
3060c0
306080
30e080
30e100
316200
326200
62e400
64c800
68d000
68d000
70e000
60c000
60c000
408000
408000
ENDCHAR
STARTCHAR X
ENCODING 88
SWIDTH 800 0
DWIDTH 15 0
BBX 20 16 -2 0
BITMAP
07e3f0
01c0c0
01c180
00c200
00c400
00e800
007000
006000
006000
00b000
013000
023000
041800
181800
301c00
fc7f00
ENDCHAR
STARTCHAR Y
ENCODING 89
SWIDTH 693 0
DWIDTH 13 0
BBX 14 16 2 0
BITMAP
7e7c
3830
1820
1840
1840
0c80
0d00
0e00
0e00
0c00
0c00
0c00
1800
1800
3800
fe00
ENDCHAR
STARTCHAR Z
ENCODING 90
SWIDTH 693 0
DWIDTH 13 0
BBX 15 16 0 0
BITMAP
0ffe
180c
1018
1030
0070
00e0
01c0
0180
0300
0700
0e00
1c00
1808
3010
6030
fff0
ENDCHAR
STARTCHAR bracketleft
ENCODING 91
SWIDTH 480 0
DWIDTH 9 0
BBX 11 21 0 -5
BITMAP
03e0
0200
0600
0600
0400
0400
0c00
0c00
0800
1800
1800
1000
1000
3000
3000
2000
6000
6000
4000
4000
f800
ENDCHAR
STARTCHAR backslash
ENCODING 92
SWIDTH 373 0
DWIDTH 7 0
BBX 3 17 2 0
BITMAP
80
80
80
40
40
40
40
40
40
40
40
40
20
20
20
20
20
ENDCHAR
STARTCHAR bracketright
ENCODING 93
SWIDTH 480 0
DWIDTH 9 0
BBX 11 21 -3 -5
BITMAP
03e0
0040
0040
00c0
00c0
0080
0180
0180
0100
0100
0300
0300
0200
0600
0600
0400
0400
0c00
0c00
0800
f800
ENDCHAR
STARTCHAR asciicircum
ENCODING 94
SWIDTH 533 0
DWIDTH 10 0
BBX 11 8 0 8
BITMAP
0400
0a00
0a00
1100
3180
2080
4040
c060
ENDCHAR
STARTCHAR underscore
ENCODING 95
SWIDTH 640 0
DWIDTH 12 0
BBX 13 1 0 -5
BITMAP
fff8
ENDCHAR
STARTCHAR grave
ENCODING 96
SWIDTH 426 0
DWIDTH 8 0
BBX 4 4 4 12
BITMAP
e0
60
20
10
ENDCHAR
STARTCHAR a
ENCODING 97
SWIDTH 640 0
DWIDTH 12 0
BBX 10 11 1 0
BITMAP
06c0
09c0
1180
2180
6180
6180
c100
c300
c740
eb80
7300
ENDCHAR
STARTCHAR b
ENCODING 98
SWIDTH 640 0
DWIDTH 12 0
BBX 11 17 0 0
BITMAP
3c00
0c00
0c00
0c00
1800
1800
1b80
14c0
3860
3060
2060
60c0
60c0
6080
c100
4200
3c00
ENDCHAR
STARTCHAR c
ENCODING 99
SWIDTH 586 0
DWIDTH 11 0
BBX 9 11 1 0
BITMAP
0700
0880
3180
2100
6000
e000
c000
c000
c100
6200
3c00
ENDCHAR
STARTCHAR d
ENCODING 100
SWIDTH 640 0
DWIDTH 12 0
BBX 13 17 0 0
BITMAP
0078
0030
0030
0030
0020
0060
0760
08e0
10c0
30c0
60c0
4180
c180
c380
c5a0
e940
7180
ENDCHAR
STARTCHAR e
ENCODING 101
SWIDTH 586 0
DWIDTH 11 0
BBX 9 11 1 0
BITMAP
0600
1980
3180
2300
6200
5c00
e000
c000
c100
6200
3c00
ENDCHAR
STARTCHAR f
ENCODING 102
SWIDTH 373 0
DWIDTH 7 0
BBX 15 22 -4 -5
BITMAP
000c
0016
0026
0040
00c0
00c0
0180
07e0
0180
0180
0100
0300
0300
0300
0200
0600
0600
0400
0c00
0800
d000
6000
ENDCHAR
STARTCHAR g
ENCODING 103
SWIDTH 640 0
DWIDTH 12 0
BBX 13 16 -1 -5
BITMAP
0780
1c78
1860
3060
3060
30c0
1b80
0c00
1000
3c00
3fc0
41e0
c060
c020
61c0
3e00
ENDCHAR
STARTCHAR h
ENCODING 104
SWIDTH 640 0
DWIDTH 12 0
BBX 12 17 0 0
BITMAP
1e00
0600
0400
0c00
0c00
0800
18e0
1960
1a60
3460
38c0
30c0
30c0
6180
61b0
41e0
c180
ENDCHAR
STARTCHAR i
ENCODING 105
SWIDTH 373 0
DWIDTH 7 0
BBX 6 15 1 0
BITMAP
0c
0c
00
00
08
78
18
30
30
30
60
60
6c
f8
60
ENDCHAR
STARTCHAR j
ENCODING 106
SWIDTH 373 0
DWIDTH 7 0
BBX 11 20 -4 -5
BITMAP
0060
0060
0000
0000
0040
03c0
00c0
0080
0180
0180
0100
0300
0300
0300
0600
0600
0600
0c00
c800
7000
ENDCHAR
STARTCHAR k
ENCODING 107
SWIDTH 586 0
DWIDTH 11 0
BBX 12 17 0 0
BITMAP
1e00
0c00
0c00
0c00
0c00
0800
1800
19f0
18c0
3100
3200
3e00
7600
6600
6320
4340
c380
ENDCHAR
STARTCHAR l
ENCODING 108
SWIDTH 373 0
DWIDTH 7 0
BBX 7 17 1 0
BITMAP
1e
0c
0c
0c
08
18
18
18
30
30
30
60
60
60
48
d0
e0
ENDCHAR
STARTCHAR m
ENCODING 109
SWIDTH 906 0
DWIDTH 17 0
BBX 17 11 0 0
BITMAP
78c700
194b00
1a5300
346300
38e600
30a600
30c600
618c00
618c80
618f00
c30c00
ENDCHAR
STARTCHAR n
ENCODING 110
SWIDTH 640 0
DWIDTH 12 0
BBX 12 11 0 0
BITMAP
78e0
1960
1a60
1460
38c0
30c0
30c0
6080
61b0
61e0
c180
ENDCHAR
STARTCHAR o
ENCODING 111
SWIDTH 640 0
DWIDTH 12 0
BBX 10 11 1 0
BITMAP
0700
1980
30c0
60c0
60c0
c0c0
c180
c180
c300
6600
3800
ENDCHAR
STARTCHAR p
ENCODING 112
SWIDTH 640 0
DWIDTH 12 0
BBX 14 16 -3 -5
BITMAP
0f78
038c
030c
060c
060c
0418
0c18
0c10
0c30
0c40
1b80
1800
1000
3000
3000
fc00
ENDCHAR
STARTCHAR q
ENCODING 113
SWIDTH 640 0
DWIDTH 12 0
BBX 10 16 1 -5
BITMAP
0640
09c0
1180
2180
6180
6180
c300
c300
c700
ca00
7200
0600
0600
0400
0c00
3f00
ENDCHAR
STARTCHAR r
ENCODING 114
SWIDTH 480 0
DWIDTH 9 0
BBX 10 11 0 0
BITMAP
78c0
19c0
1280
3400
3800
3800
3000
6000
6000
4000
c000
ENDCHAR
STARTCHAR s
ENCODING 115
SWIDTH 480 0
DWIDTH 9 0
BBX 9 11 0 0
BITMAP
0c80
1300
3100
3100
1800
0c00
0e00
8600
8600
c400
b800
ENDCHAR
STARTCHAR t
ENCODING 116
SWIDTH 373 0
DWIDTH 7 0
BBX 7 14 1 0
BITMAP
04
08
08
38
7e
30
30
30
60
60
60
c8
d0
e0
ENDCHAR
STARTCHAR u
ENCODING 117
SWIDTH 640 0
DWIDTH 12 0
BBX 11 11 1 0
BITMAP
7060
b0c0
b0c0
20c0
6180
6180
6380
c500
cb20
d340
e380
ENDCHAR
STARTCHAR v
ENCODING 118
SWIDTH 586 0
DWIDTH 11 0
BBX 11 11 0 0
BITMAP
f860
3860
1820
1820
1c40
0c40
0c80
0d00
0e00
0c00
0800
ENDCHAR
STARTCHAR w
ENCODING 119
SWIDTH 853 0
DWIDTH 16 0
BBX 16 11 0 0
BITMAP
f043
3043
30c1
19c2
19c2
1a64
1a64
1c68
1870
1860
1040
ENDCHAR
STARTCHAR x
ENCODING 120
SWIDTH 586 0
DWIDTH 11 0
BBX 12 11 -1 0
BITMAP
3c30
0cf0
0680
0700
0600
0200
0700
0b00
0b20
d1c0
e180
ENDCHAR
STARTCHAR y
ENCODING 121
SWIDTH 586 0
DWIDTH 11 0
BBX 13 16 -2 -5
BITMAP
1c18
0c18
0408
0408
0410
0610
0620
0640
0680
0700
0600
0400
0400
0800
d000
e000
ENDCHAR
STARTCHAR z
ENCODING 122
SWIDTH 480 0
DWIDTH 9 0
BBX 10 10 -1 0
BITMAP
1fc0
2180
2100
0200
0400
0800
1000
2080
6100
ff00
ENDCHAR
STARTCHAR braceleft
ENCODING 123
SWIDTH 533 0
DWIDTH 10 0
BBX 9 22 2 -5
BITMAP
0180
0600
0c00
0800
1800
1800
1800
1800
1000
2000
4000
c000
2000
2000
6000
6000
c000
c000
8000
8000
4000
2000
ENDCHAR
STARTCHAR bar
ENCODING 124
SWIDTH 373 0
DWIDTH 7 0
BBX 1 22 3 -5
BITMAP
80
80
80
80
80
80
80
80
80
80
80
80
80
80
80
80
80
80
80
80
80
80
ENDCHAR
STARTCHAR braceright
ENCODING 125
SWIDTH 533 0
DWIDTH 10 0
BBX 10 22 -2 -5
BITMAP
0100
0080
0040
0040
00c0
00c0
0180
0180
0100
0100
00c0
0080
0300
0600
0c00
0c00
0c00
0c00
0800
1800
3000
c000
ENDCHAR
STARTCHAR asciitilde
ENCODING 126
SWIDTH 693 0
DWIDTH 13 0
BBX 13 3 0 5
BITMAP
3808
4718
80e0
ENDCHAR
STARTCHAR exclamdown
ENCODING 161
SWIDTH 800 0
DWIDTH 15 0
BBX 12 15 1 0
BITMAP
07c0
18e0
2060
4030
7c30
3030
3060
6060
6060
6060
6060
6060
60c0
c0c0
c080
ENDCHAR
STARTCHAR cent
ENCODING 162
SWIDTH 800 0
DWIDTH 15 0
BBX 13 15 2 0
BITMAP
3c18
4630
8630
f630
9630
9e70
6c70
0c60
0c60
0c60
0c60
1ce0
08c0
0cc0
0700
ENDCHAR
STARTCHAR sterling
ENCODING 163
SWIDTH 906 0
DWIDTH 17 0
BBX 15 15 2 0
BITMAP
2202
6f0c
5f0c
930c
831c
a71c
9618
d618
6618
0638
0e38
0c30
0c30
0660
03c0
ENDCHAR
STARTCHAR currency
ENCODING 164
SWIDTH 800 0
DWIDTH 15 0
BBX 11 15 2 0
BITMAP
0780
18c0
20e0
4060
8c60
9260
b260
7c40
70c0
60c0
60c0
60c0
e0c0
e080
c180
ENDCHAR
STARTCHAR yen
ENCODING 165
SWIDTH 800 0
DWIDTH 15 0
BBX 12 15 2 0
BITMAP
0cc0
15e0
2270
4030
8c30
9260
f260
7c60
7060
6060
6060
60c0
e0c0
e0c0
c0c0
ENDCHAR
STARTCHAR brokenbar
ENCODING 166
SWIDTH 960 0
DWIDTH 18 0
BBX 16 15 2 0
BITMAP
2703
5b06
5306
8306
830e
960e
960c
560c
660c
061c
1f1c
1fd8
2c78
2c38
1838
ENDCHAR
STARTCHAR section
ENCODING 167
SWIDTH 640 0
DWIDTH 12 0
BBX 9 15 1 0
BITMAP
0700
0b80
0980
0980
0780
0300
0300
8300
4300
6300
3600
1e00
1e00
0e00
0e00
ENDCHAR
STARTCHAR diaeresis
ENCODING 168
SWIDTH 693 0
DWIDTH 13 0
BBX 10 15 2 0
BITMAP
1e00
6380
c180
81c0
71c0
9980
9980
7980
3980
3180
3380
3300
3300
3200
1c00
ENDCHAR
STARTCHAR copyright
ENCODING 169
SWIDTH 853 0
DWIDTH 16 0
BBX 12 15 2 0
BITMAP
1f80
61e0
c060
8060
7070
9860
9860
7860
3860
3060
33c0
3ce0
3120
7120
60c0
ENDCHAR
STARTCHAR ordfeminine
ENCODING 170
SWIDTH 800 0
DWIDTH 15 0
BBX 14 15 2 0
BITMAP
3c1c
4618
c630
b6e0
97c0
d6e0
6c60
0c60
0c60
0ce0
0cc0
0cc0
08c0
1980
3f00
ENDCHAR
STARTCHAR guillemotleft
ENCODING 171
SWIDTH 853 0
DWIDTH 16 0
BBX 15 15 2 0
BITMAP
1206
370c
5b18
8b30
83e0
b320
9230
f630
2630
0630
0660
0660
04e0
0cc0
1f80
ENDCHAR
STARTCHAR notsign
ENCODING 172
SWIDTH 1013 0
DWIDTH 19 0
BBX 17 15 1 0
BITMAP
0f8080
30c380
20e300
406300
7c6300
306300
206300
20c300
20c600
60c600
60c600
63c600
94f600
959e00
630c00
ENDCHAR
STARTCHAR hyphen
ENCODING 173
SWIDTH 1013 0
DWIDTH 19 0
BBX 17 22 2 -7
BITMAP
1f8080
21c380
40c300
80e300
f8c300
20c300
60c300
60c600
60c600
60c600
408600
718600
c98600
488c00
307000
000000
018c00
019800
039800
021800
013800
01e000
ENDCHAR
STARTCHAR registered
ENCODING 174
SWIDTH 800 0
DWIDTH 15 0
BBX 14 22 0 -7
BITMAP
03e0
0c38
1018
100c
3f0c
0c0c
1818
1818
1818
1818
1818
7818
9030
90b0
6330
0230
1c30
2660
4960
69e0
30e0
00e0
ENDCHAR
STARTCHAR macron
ENCODING 175
SWIDTH 853 0
DWIDTH 16 0
BBX 13 22 1 -7
BITMAP
07c0
0870
1030
1018
3e18
1818
1818
1830
1830
1830
3030
f030
9030
9020
6260
0460
0860
7860
5860
9840
6fc0
00c0
ENDCHAR
STARTCHAR degree
ENCODING 176
SWIDTH 746 0
DWIDTH 14 0
BBX 15 21 -1 -6
BITMAP
03e2
063c
0818
1fc0
1870
0e30
1330
13b0
0f30
0330
0330
0730
0760
0360
03c0
1880
11c0
7240
99c0
6840
0f80
ENDCHAR
STARTCHAR plusminus
ENCODING 177
SWIDTH 1013 0
DWIDTH 19 0
BBX 17 15 2 0
BITMAP
110700
338f80
4d9380
499180
81a380
8ba300
cb4300
5b4300
334300
038300
038600
070600
070600
070600
060600
ENDCHAR
STARTCHAR twosuperior
ENCODING 178
SWIDTH 1013 0
DWIDTH 19 0
BBX 16 15 2 0
BITMAP
0981
19c3
26e6
4466
8066
8c46
92c6
92c6
9ccc
c8cc
f1cc
e2ec
c5bc
c59c
c318
ENDCHAR
STARTCHAR threesuperior
ENCODING 179
SWIDTH 1066 0
DWIDTH 20 0
BBX 17 15 2 0
BITMAP
1f0180
63c300
41c300
80c700
f8c700
60c600
618600
618600
618e00
418e00
71bc00
dbd600
4ba200
5ba400
231800
ENDCHAR
STARTCHAR acute
ENCODING 180
SWIDTH 800 0
DWIDTH 15 0
BBX 11 15 2 0
BITMAP
0f80
30c0
6060
4060
8660
8960
d160
d240
4e40
78c0
70c0
60c0
c0c0
c080
c080
ENDCHAR
STARTCHAR mu
ENCODING 181
SWIDTH 800 0
DWIDTH 15 0
BBX 11 15 2 0
BITMAP
0880
15c0
26c0
4460
c060
8c60
9260
92c0
dcc0
c4c0
78c0
f0c0
e0c0
c180
c180
ENDCHAR
STARTCHAR paragraph
ENCODING 182
SWIDTH 746 0
DWIDTH 14 0
BBX 11 15 2 0
BITMAP
1f00
21c0
40e0
4060
f860
6060
6060
6060
60c0
60c0
40c0
f8c0
c8c0
4880
3180
ENDCHAR
STARTCHAR periodcentered
ENCODING 183
SWIDTH 906 0
DWIDTH 17 0
BBX 13 15 2 0
BITMAP
7070
98b8
9918
9918
7a18
1a18
1230
3430
3430
3830
3830
3070
3060
7060
6060
ENDCHAR
STARTCHAR cedilla
ENCODING 184
SWIDTH 746 0
DWIDTH 14 0
BBX 12 15 1 0
BITMAP
0e10
3fe0
4cc0
7c00
1e00
1dc0
18c0
18c0
18c0
18c0
1980
3180
3180
3180
fe00
ENDCHAR
STARTCHAR onesuperior
ENCODING 185
SWIDTH 906 0
DWIDTH 17 0
BBX 14 15 2 0
BITMAP
700c
5818
9818
d818
7818
1018
3030
3030
3030
3030
23e0
2e60
7090
6090
6060
ENDCHAR
STARTCHAR masculine
ENCODING 186
SWIDTH 906 0
DWIDTH 17 0
BBX 14 15 2 0
BITMAP
380c
d80c
8818
9c18
7818
1818
1818
1818
1830
3030
3030
3030
3030
3060
ffc0
ENDCHAR
STARTCHAR guillemotright
ENCODING 187
SWIDTH 906 0
DWIDTH 17 0
BBX 16 24 2 0
BITMAP
0001
0003
0006
0006
0006
0006
0006
000c
000c
380c
d80c
8c0c
9c0c
7818
1818
1818
1818
1818
3838
3030
3030
3030
3070
ffc0
ENDCHAR
STARTCHAR onequarter
ENCODING 188
SWIDTH 746 0
DWIDTH 14 0
BBX 14 15 0 0
BITMAP
0e0c
190c
3918
3e18
3018
3118
3318
7338
64b0
68b0
7070
7070
6070
c060
c040
ENDCHAR
STARTCHAR onehalf
ENCODING 189
SWIDTH 746 0
DWIDTH 14 0
BBX 16 24 0 0
BITMAP
0001
0003
0006
0006
0006
0006
0006
000c
000c
060c
190c
390c
3e1c
3018
3118
3118
3298
6498
68b0
7870
7070
6030
e030
c060
ENDCHAR
STARTCHAR threequarters
ENCODING 190
SWIDTH 906 0
DWIDTH 17 0
BBX 15 15 2 0
BITMAP
708e
998c
998c
d98c
729c
1298
34d8
34d8
34d8
3878
3870
3070
7070
6070
6070
ENDCHAR
STARTCHAR questiondown
ENCODING 191
SWIDTH 906 0
DWIDTH 17 0
BBX 16 23 2 0
BITMAP
0003
0006
0006
0006
0006
0006
000e
000c
708c
b98c
998c
d99c
7298
1298
34d8
34d8
38d8
3870
2870
3070
7070
6070
6070
ENDCHAR
STARTCHAR Agrave
ENCODING 192
SWIDTH 800 0
DWIDTH 15 0
BBX 14 15 0 0
BITMAP
03e0
0c38
081c
100c
1f0c
0c0c
0c18
0c18
0c18
1818
1818
7818
8830
d830
6020
ENDCHAR
STARTCHAR Aacute
ENCODING 193
SWIDTH 800 0
DWIDTH 15 0
BBX 14 15 1 0
BITMAP
1804
2c0c
4418
4c18
3c18
0c18
0c18
1838
1830
1830
7830
9e30
b370
b1e0
60c0
ENDCHAR
STARTCHAR Acircumflex
ENCODING 194
SWIDTH 693 0
DWIDTH 13 0
BBX 12 15 1 0
BITMAP
1c30
2460
2260
6460
5860
60e0
3cc0
60c0
c0c0
c0c0
c0c0
81c0
c180
4300
3c00
ENDCHAR
STARTCHAR Atilde
ENCODING 195
SWIDTH 693 0
DWIDTH 13 0
BBX 10 15 2 0
BITMAP
3c40
6f80
4300
c000
7000
0e00
0600
0600
0600
0600
0600
3c00
4c00
4c00
3000
ENDCHAR
STARTCHAR Adiaeresis
ENCODING 196
SWIDTH 746 0
DWIDTH 14 0
BBX 11 21 2 -6
BITMAP
0f00
31c0
40e0
4060
f860
6060
6060
6060
60c0
60c0
40c0
f8c0
c8c0
48c0
3180
0180
0180
0180
0180
0100
0300
ENDCHAR
STARTCHAR Aring
ENCODING 197
SWIDTH 746 0
DWIDTH 14 0
BBX 11 15 2 0
BITMAP
0f00
31c0
40e0
4060
0e60
31e0
20e0
60c0
60c0
60c0
f0c0
c8c0
c8c0
e980
7180
ENDCHAR
STARTCHAR AE
ENCODING 198
SWIDTH 800 0
DWIDTH 15 0
BBX 14 21 0 -6
BITMAP
03e0
0c38
081c
100c
1f0c
0c0c
0c18
0c18
0c18
1818
1818
7818
8830
d830
6030
0030
0030
0060
0060
0060
0040
ENDCHAR
STARTCHAR Ccedilla
ENCODING 199
SWIDTH 693 0
DWIDTH 13 0
BBX 10 15 2 0
BITMAP
1e00
6380
41c0
80c0
00c0
00c0
0180
0180
0180
0180
0180
0f80
0b00
1300
0c00
ENDCHAR
STARTCHAR Egrave
ENCODING 200
SWIDTH 746 0
DWIDTH 14 0
BBX 14 16 2 0
BITMAP
000c
0f88
30d8
6070
4070
8ce0
b360
b260
fc60
6060
6040
60c0
e0c0
e0c0
c0c0
c0c0
ENDCHAR
STARTCHAR Eacute
ENCODING 201
SWIDTH 853 0
DWIDTH 16 0
BBX 14 15 1 0
BITMAP
1804
2c0c
440c
4e08
3c08
0c18
0f18
1c98
1c18
1e38
1bd0
1830
3830
3030
ffc0
ENDCHAR
STARTCHAR Ecircumflex
ENCODING 202
SWIDTH 853 0
DWIDTH 16 0
BBX 15 16 2 0
BITMAP
0006
0f8c
31ec
4078
80f0
8f30
38a0
6060
6060
6060
c060
c0e0
f0c0
88c0
98c0
60c0
ENDCHAR
STARTCHAR Ediaeresis
ENCODING 203
SWIDTH 906 0
DWIDTH 17 0
BBX 14 15 2 0
BITMAP
7018
782c
9824
9824
7838
18f8
3110
3230
3430
3830
3030
2030
6070
6060
6060
ENDCHAR
STARTCHAR Igrave
ENCODING 204
SWIDTH 906 0
DWIDTH 17 0
BBX 17 16 2 0
BITMAP
000d80
301380
486300
88a700
989c00
798c00
319c00
329800
32d800
345800
745800
787800
687000
707000
e07000
e03000
ENDCHAR
STARTCHAR Iacute
ENCODING 205
SWIDTH 746 0
DWIDTH 14 0
BBX 12 15 2 0
BITMAP
1f80
31e0
4060
c060
5870
6470
6460
7860
6060
c0e0
c0e0
c0c0
c0c0
6300
3c00
ENDCHAR
STARTCHAR Icircumflex
ENCODING 206
SWIDTH 746 0
DWIDTH 14 0
BBX 13 15 0 0
BITMAP
0f98
10f0
2060
30e0
0f60
0060
1c60
6240
62c0
7cc0
c0c0
c0c0
e080
6380
1e00
ENDCHAR
STARTCHAR Idiaeresis
ENCODING 207
SWIDTH 800 0
DWIDTH 15 0
BBX 11 15 2 0
BITMAP
00e0
01e0
01e0
3a40
eac0
c4c0
ccc0
70c0
00c0
0080
0180
0180
0180
0180
0180
ENDCHAR
STARTCHAR ETH
ENCODING 208
SWIDTH 693 0
DWIDTH 13 0
BBX 12 14 1 0
BITMAP
1c30
3630
6670
6de0
3f00
0000
0000
0000
3860
6cc0
ccc0
cdc0
db80
7e00
ENDCHAR
STARTCHAR Ntilde
ENCODING 209
SWIDTH 0 0
DWIDTH 0 0
BBX 11 6 -6 17
BITMAP
3060
4840
88c0
8880
9380
7c00
ENDCHAR
STARTCHAR Ograve
ENCODING 210
SWIDTH 533 0
DWIDTH 10 0
BBX 8 15 2 0
BITMAP
3c
46
87
03
07
06
06
06
06
06
0c
0c
0c
0c
0c
ENDCHAR
STARTCHAR Oacute
ENCODING 211
SWIDTH 586 0
DWIDTH 11 0
BBX 14 23 -4 0
BITMAP
7800
c800
8c00
8800
7000
0000
0000
0000
00f0
0118
021c
000c
001c
0018
0018
0018
0018
0018
0030
0030
0030
0030
0030
ENDCHAR
STARTCHAR Ocircumflex
ENCODING 212
SWIDTH 0 0
DWIDTH 0 0
BBX 12 7 -11 17
BITMAP
0780
3860
2020
4030
ff10
00f0
0010
ENDCHAR
STARTCHAR Otilde
ENCODING 213
SWIDTH 0 0
DWIDTH 0 0
BBX 12 7 -12 17
BITMAP
0030
0f30
30e0
6060
4020
ff20
00e0
ENDCHAR
STARTCHAR Odiaeresis
ENCODING 214
SWIDTH 0 0
DWIDTH 0 0
BBX 13 8 -11 17
BITMAP
0030
0048
0fd8
38f0
6060
4020
ffa0
0070
ENDCHAR
STARTCHAR multiply
ENCODING 215
SWIDTH 0 0
DWIDTH 0 0
BBX 12 8 -10 17
BITMAP
0130
0130
0720
1fe0
20e0
4060
ff20
00e0
ENDCHAR
STARTCHAR Ooblique
ENCODING 216
SWIDTH 0 0
DWIDTH 0 0
BBX 5 6 -9 -7
BITMAP
70
98
98
78
10
30
ENDCHAR
STARTCHAR Ugrave
ENCODING 217
SWIDTH 0 0
DWIDTH 0 0
BBX 9 6 -12 -7
BITMAP
3180
5300
d300
7300
1300
1e00
ENDCHAR
STARTCHAR Uacute
ENCODING 218
SWIDTH 0 0
DWIDTH 0 0
BBX 3 3 -7 -5
BITMAP
60
e0
c0
ENDCHAR
STARTCHAR Ucircumflex
ENCODING 219
SWIDTH 426 0
DWIDTH 8 0
BBX 0 0 0 0
BITMAP
ENDCHAR
STARTCHAR Udiaeresis
ENCODING 220
SWIDTH 426 0
DWIDTH 8 0
BBX 8 4 0 -4
BITMAP
7f
7f
81
81
ENDCHAR
STARTCHAR ssharp
ENCODING 223
SWIDTH 853 0
DWIDTH 16 0
BBX 15 19 0 -1
BITMAP
0060
0060
1ff8
076c
0666
0646
0ec6
0ece
0edc
0fe0
0cfc
0c8c
1d8e
1d8e
1d8e
199c
3db8
ffe0
0300
ENDCHAR
STARTCHAR agrave
ENCODING 224
SWIDTH 320 0
DWIDTH 6 0
BBX 5 15 0 0
BITMAP
08
18
18
38
30
30
30
30
70
60
70
88
88
90
60
ENDCHAR
STARTCHAR aacute
ENCODING 225
SWIDTH 746 0
DWIDTH 14 0
BBX 13 15 0 0
BITMAP
0c18
1c38
1c38
3c38
3830
3870
3870
3870
7870
7070
7870
ccd8
ccd8
d8f0
7060
ENDCHAR
STARTCHAR acircumflex
ENCODING 226
SWIDTH 693 0
DWIDTH 13 0
BBX 11 24 4 0
BITMAP
3c00
7f60
87c0
6080
1800
0600
0600
0e00
0c00
0c00
0c00
0c00
1c00
1800
1800
1800
1800
3800
3000
3800
4400
4400
4800
3000
ENDCHAR
STARTCHAR atilde
ENCODING 227
SWIDTH 586 0
DWIDTH 11 0
BBX 7 24 4 0
BITMAP
38
6c
8e
be
9c
6c
0c
0c
1c
1c
18
18
18
18
18
38
30
30
30
30
48
48
48
30
ENDCHAR
STARTCHAR adiaeresis
ENCODING 228
SWIDTH 693 0
DWIDTH 13 0
BBX 8 25 4 0
BITMAP
c0
6e
6b
4b
56
d6
d6
66
06
06
04
0c
0c
0c
0c
08
08
08
18
18
18
1c
24
3c
10
ENDCHAR
STARTCHAR aring
ENCODING 229
SWIDTH 586 0
DWIDTH 11 0
BBX 8 21 2 -6
BITMAP
3c
47
87
03
07
06
06
06
06
06
0c
0c
0c
0c
0c
1c
18
18
18
18
18
ENDCHAR
STARTCHAR ae
ENCODING 230
SWIDTH 853 0
DWIDTH 16 0
BBX 11 20 2 -5
BITMAP
1980
26c0
4460
4060
9060
9060
90c0
60c0
00c0
00c0
00c0
00c0
0080
0180
0180
0180
0180
0180
0100
0300
ENDCHAR
STARTCHAR ccedilla
ENCODING 231
SWIDTH 0 0
DWIDTH 0 0
BBX 10 10 -9 17
BITMAP
00c0
00c0
01c0
3980
7f00
4000
8380
8380
b180
4f00
ENDCHAR
STARTCHAR egrave
ENCODING 232
SWIDTH 0 0
DWIDTH 0 0
BBX 3 4 -1 26
BITMAP
e0
c0
c0
c0
ENDCHAR
STARTCHAR eacute
ENCODING 233
SWIDTH 0 0
DWIDTH 0 0
BBX 9 8 -2 26
BITMAP
0080
3180
4900
4900
3a00
1600
3c00
e000
ENDCHAR
STARTCHAR ecircumflex
ENCODING 234
SWIDTH 0 0
DWIDTH 0 0
BBX 9 7 -4 27
BITMAP
0080
2880
5c80
c500
8700
b600
6800
ENDCHAR
STARTCHAR ediaeresis
ENCODING 235
SWIDTH 0 0
DWIDTH 0 0
BBX 7 7 -3 26
BITMAP
18
18
18
fe
fe
30
30
ENDCHAR
STARTCHAR igrave
ENCODING 236
SWIDTH 0 0
DWIDTH 0 0
BBX 8 8 0 24
BITMAP
02
03
06
0c
78
90
90
60
ENDCHAR
STARTCHAR iacute
ENCODING 237
SWIDTH 0 0
DWIDTH 0 0
BBX 6 5 -6 17
BITMAP
78
c8
8c
88
70
ENDCHAR
STARTCHAR icircumflex
ENCODING 238
SWIDTH 0 0
DWIDTH 0 0
BBX 8 9 -4 17
BITMAP
0f
18
10
10
38
60
c0
c0
70
ENDCHAR
STARTCHAR idiaeresis
ENCODING 239
SWIDTH 853 0
DWIDTH 16 0
BBX 13 13 1 0
BITMAP
07c0
1860
2010
4708
4f88
9f88
9f88
9f10
8e10
4020
4040
6180
1e00
ENDCHAR
STARTCHAR eth
ENCODING 240
SWIDTH 800 0
DWIDTH 15 0
BBX 11 11 1 0
BITMAP
0f80
1fc0
39c0
60e0
e060
c060
c060
c0e0
e0c0
7180
1f00
ENDCHAR
STARTCHAR ntilde
ENCODING 241
SWIDTH 800 0
DWIDTH 15 0
BBX 12 11 1 0
BITMAP
0f00
1fc0
31e0
6060
4030
ce30
de30
de60
ce60
6cc0
3300
ENDCHAR
STARTCHAR ograve
ENCODING 242
SWIDTH 1120 0
DWIDTH 21 0
BBX 18 17 1 0
BITMAP
300000
380000
380000
300000
300000
300000
300000
70e380
73f7c0
6318c0
6608c0
64c8c0
65e880
e6d180
e39100
e00600
7ffc00
ENDCHAR
STARTCHAR oacute
ENCODING 243
SWIDTH 1013 0
DWIDTH 19 0
BBX 16 11 1 0
BITMAP
0f9c
1ffe
30e7
6063
c043
8043
8e42
9ec6
de8c
6d88
3118
ENDCHAR
STARTCHAR ocircumflex
ENCODING 244
SWIDTH 1013 0
DWIDTH 19 0
BBX 17 16 1 0
BITMAP
000180
000180
000100
000300
000c00
007800
03c000
0c0000
387000
70f800
61b800
e1b000
c18000
e0c000
71f800
3e0e00
ENDCHAR
STARTCHAR otilde
ENCODING 245
SWIDTH 1013 0
DWIDTH 19 0
BBX 17 16 1 0
BITMAP
000180
00e180
013100
013600
01fc00
00f000
070000
1c3c00
307c00
60dc00
e0d800
c0c000
c06000
e03000
7bfc00
3e1c00
ENDCHAR
STARTCHAR odiaeresis
ENCODING 246
SWIDTH 853 0
DWIDTH 16 0
BBX 11 17 2 0
BITMAP
6000
7000
3000
3800
1800
1800
1000
3700
38c0
4060
0060
7860
7860
f8c0
60c0
7180
0e00
ENDCHAR
STARTCHAR division
ENCODING 247
SWIDTH 1066 0
DWIDTH 20 0
BBX 17 17 1 0
BITMAP
000800
000e00
000f00
000700
000380
000380
0e2180
1f7180
319900
609900
e09b00
c01a00
c21600
cf1400
6f3800
7e7000
1c2000
ENDCHAR
STARTCHAR oslash
ENCODING 248
SWIDTH 960 0
DWIDTH 18 0
BBX 17 16 1 0
BITMAP
000100
000180
000100
000300
000300
000600
0f0e00
3ffc00
70f800
600000
c00000
c03000
cc7800
fe7800
731000
31e000
ENDCHAR
STARTCHAR ugrave
ENCODING 249
SWIDTH 800 0
DWIDTH 15 0
BBX 14 17 1 0
BITMAP
000c
000c
0018
0ff0
1800
1000
1820
0fe0
3800
6000
6180
c3c0
c3c0
c1c0
c080
6380
1e00
ENDCHAR
STARTCHAR uacute
ENCODING 250
SWIDTH 906 0
DWIDTH 17 0
BBX 16 15 1 0
BITMAP
0073
00f7
01f6
3166
4b66
8266
8466
d86e
706c
00cc
00cc
00cc
00cc
00d8
0198
ENDCHAR
STARTCHAR ucircumflex
ENCODING 251
SWIDTH 1600 0
DWIDTH 30 0
BBX 28 13 1 0
BITMAP
07c00000
18600000
30000000
60000000
60000000
60000000
c0088830
c0199820
c01dfc60
c03664c0
60644380
70c00000
1f000000
ENDCHAR
STARTCHAR udiaeresis
ENCODING 252
SWIDTH 0 0
DWIDTH 0 0
BBX 5 6 -10 -15
BITMAP
70
98
98
78
10
30
ENDCHAR
STARTCHAR yacute
ENCODING 253
SWIDTH 0 0
DWIDTH 0 0
BBX 9 7 -13 -15
BITMAP
3180
5380
d300
7300
1300
1f00
1e00
ENDCHAR
STARTCHAR thorn
ENCODING 254
SWIDTH 0 0
DWIDTH 0 0
BBX 3 3 -8 -12
BITMAP
60
e0
c0
ENDCHAR
STARTCHAR C000400
ENCODING 256
SWIDTH 320 0
DWIDTH 6 0
BBX 0 0 0 0
BITMAP
ENDCHAR
STARTCHAR C000401
ENCODING 257
SWIDTH 320 0
DWIDTH 6 0
BBX 0 0 0 0
BITMAP
ENDCHAR
STARTCHAR C000430
ENCODING 280
SWIDTH 320 0
DWIDTH 6 0
BBX 0 0 0 0
BITMAP
ENDCHAR
STARTCHAR C001103
ENCODING 579
SWIDTH 640 0
DWIDTH 12 0
BBX 13 1 0 5
BITMAP
fff8
ENDCHAR
STARTCHAR C001104
ENCODING 580
SWIDTH 1120 0
DWIDTH 21 0
BBX 22 1 0 5
BITMAP
fffffc
ENDCHAR
STARTCHAR C001107
ENCODING 583
SWIDTH 426 0
DWIDTH 8 0
BBX 3 5 5 11
BITMAP
20
40
80
c0
c0
ENDCHAR
STARTCHAR C001110
ENCODING 584
SWIDTH 426 0
DWIDTH 8 0
BBX 3 5 5 11
BITMAP
60
60
20
40
80
ENDCHAR
STARTCHAR C001113
ENCODING 587
SWIDTH 693 0
DWIDTH 13 0
BBX 8 5 5 11
BITMAP
21
42
84
c6
c6
ENDCHAR
STARTCHAR C001114
ENCODING 588
SWIDTH 693 0
DWIDTH 13 0
BBX 9 5 4 11
BITMAP
6180
6180
2080
6100
8200
ENDCHAR
STARTCHAR C001115
ENCODING 589
SWIDTH 693 0
DWIDTH 13 0
BBX 9 5 0 -3
BITMAP
7180
7180
2080
2100
c200
ENDCHAR
STARTCHAR C001121
ENCODING 593
SWIDTH 426 0
DWIDTH 8 0
BBX 6 6 2 5
BITMAP
30
78
fc
fc
78
30
ENDCHAR
STARTCHAR C001122
ENCODING 594
SWIDTH 1120 0
DWIDTH 21 0
BBX 15 3 3 -1
BITMAP
e38e
e38e
e38e
ENDCHAR
ENDFONT
